<?xml version="1.0" standalone="no"?>
<!DOCTYPE svg PUBLIC "-//W3C//DTD SVG 20010904//EN"
 "http://www.w3.org/TR/2001/REC-SVG-20010904/DTD/svg10.dtd">
<svg version="1.0" xmlns="http://www.w3.org/2000/svg"
 width="40.000000pt" height="40.000000pt" viewBox="0 0 40.000000 40.000000"
 preserveAspectRatio="xMidYMid meet">

<g transform="translate(0.000000,40.000000) scale(0.100000,-0.100000)"
fill="#000000" stroke="none">
<path d="M0 200 l0 -200 200 0 200 0 0 200 0 200 -200 0 -200 0 0 -200z m162
65 c18 -36 35 -65 38 -65 3 0 20 30 38 66 27 54 36 65 55 62 21 -3 22 -8 25
-105 3 -97 2 -103 -17 -103 -18 0 -20 8 -23 68 l-3 67 -30 -54 c-16 -30 -35
-56 -41 -58 -7 -2 -27 22 -45 54 l-34 58 -3 -67 c-2 -52 -6 -68 -17 -68 -12 0
-15 20 -15 105 0 98 1 105 20 105 15 0 29 -17 52 -65z"/>
</g>
</svg>
